<?xml version="1.0" encoding="UTF-8"?>
<svg id="Layer_2" data-name="Layer 2" xmlns="http://www.w3.org/2000/svg" width="754.34" height="398.5" xmlns:xlink="http://www.w3.org/1999/xlink" viewBox="0 0 754.34 398.5">
  <defs>
    <style>
      .cls-1, .cls-2 {
        fill: #fff;
      }

      .cls-2 {
        font-family: MyriadPro-Regular, 'Myriad Pro';
        font-size: 14.09px;
      }

      .cls-3 {
        fill: none;
        stroke: #fff;
        stroke-miterlimit: 10;
        stroke-width: .29px;
      }

      .cls-4 {
        fill: url(#linear-gradient);
      }
    </style>
    <linearGradient id="linear-gradient" x1="147.16" y1="322.37" x2="737.83" y2="322.37" gradientUnits="userSpaceOnUse">
      <stop offset="0" stop-color="#f900e6"/>
      <stop offset="1" stop-color="#2202e3"/>
    </linearGradient>
  </defs>
  <g id="Roku">
    <g>
      <path class="cls-1" d="M371.29,49.26V224.75h60.12v-71.67l71.76,71.28h75.63l-91.57-91.57,75.69-75.69,.59,113.9,.53,2.81c1.58,17.74,14.41,36.66,30.22,44.8,41.28,21.26,80.1,5.62,101.14-16.78h0s26.48,22.92,26.48,22.92h13.18V49.26h-59.82v113.44h0c-2.93,4.11-6.6,11.42-15.22,15.81-5.22,2.65-11.12,3.58-18.97,3.31-1.4-.05-2.78-.35-4.07-.88l-2.58-1.06c-3.86-2.11-6.04-5.49-7.48-8.77-1.05-2.39-1.87-4.93-2.3-6.97-2.25-10.56-1.55-22.62-1.55-28V49.26h-122.92l-68.18,68.18V48.86l-60.67,.4Z"/>
      <path class="cls-1" d="M266.81,43.99c-50.23,.85-91.88,43.07-90.65,93.81,1.22,50.13,43.86,90.05,93.54,89.33,49.45-.71,90.56-41.45,90.91-90.91,.36-51.04-42.81-93.09-93.81-92.23Zm1.32,141.5c-16.48,.14-33.02-28.52-29.78-54.81,1.38-11.16,6.31-25.45,11.59-32.15,8.81-11.16,23.49-13,32.94-2.37,8.43,9.49,12.66,21.22,14.49,32.15,4.47,26.63-12.59,57.04-29.25,57.18Z"/>
      <path class="cls-1" d="M137.17,137.27l1.1-.81c12.63-9.32,23.22-17.97,30.52-31.86,3.85-7.33,6.68-18.03,6.68-25.65,0-18.8-5.01-38.03-25.52-56.43l-10.58-7.6c-2.66-1.76-8.47-4.65-11.42-5.86C101.23-1.92,86.25,.56,65.58,.42L0,0V224.75H60.23v-75.36h17.92l53.49,75.36h68.51l-62.98-87.48Zm-21.67-54.74c-.79,9.22-8.1,17.79-11.07,20.03-3.17,2.39-5.99,5.38-9.77,6.87l-6.1,2.15c-5.14,1.01-8.77,.92-13.13,.92h-15.07V37.53l7.31,.05c7.89,.05,19.57-.51,25.1,2.59l4.35,2.28c5.45,3.47,8.57,6.05,11.65,10.2,4.73,6.35,7.19,13.94,7.19,22.17l-.46,7.71Z"/>
    </g>
    <g id="tm">
      <circle class="cls-3" cx="748" cy="45.76" r="6.19"/>
      <text class="cls-2" transform="translate(743.2 53.34)"><tspan x="0" y="0">™</tspan></text>
    </g>
  </g>
  <g id="Flaskback">
    <g>
      <rect class="cls-4" x="147.16" y="246.24" width="590.68" height="152.25" rx="76.13" ry="76.13"/>
      <polygon class="cls-1" points="192.6 352.1 213.09 352.1 213.09 328.31 235.44 328.31 235.44 314.01 213.09 314.01 213.09 303.68 242.17 303.68 242.17 288.55 192.6 288.55 192.6 352.1"/>
      <rect class="cls-1" x="248.15" y="288.55" width="19.74" height="63.55"/>
      <path class="cls-1" d="M328.36,323.98c0-5.12-.34-8.58-1.03-10.38-.69-1.8-2.03-3.51-4.04-5.12-2.01-1.61-4.74-2.8-8.19-3.56-3.45-.76-7.23-1.14-11.35-1.14-15.17,0-24.06,4.95-26.67,14.85l18.28,1.58c.54-3.45,3.11-5.17,7.73-5.17,1.98,0,3.47,.34,4.5,1.02,1.02,.68,1.53,2.06,1.53,4.14v1.07c-12.49,.62-21.19,2.48-26.09,5.56-4.91,3.09-7.36,7.13-7.36,12.13,0,3.69,1.5,6.97,4.5,9.82,3,2.86,7.51,4.28,13.54,4.28,7.33,0,12.81-2.53,16.42-7.59,0,2.39,.23,4.59,.7,6.61h19.09c-1.04-2.54-1.56-5.62-1.56-9.22v-18.9Zm-19.24,8.24c0,4.04-.75,6.64-2.26,7.82s-3.33,1.77-5.47,1.77c-3.38,0-5.07-1.43-5.07-4.28,0-4.22,4.27-6.75,12.81-7.59v2.28Z"/>
      <path class="cls-1" d="M375.42,322.56c-2.98-.9-8.66-1.78-17.03-2.64-3.21-.34-4.82-1.28-4.82-2.83,0-.53,.53-1.06,1.58-1.61s2.65-.81,4.8-.81c4.52,0,7.48,1.4,8.89,4.19l15.17-2.65c-3.42-8.29-11.32-12.43-23.71-12.43-7.07,0-12.77,1.5-17.13,4.49-4.35,3-6.53,6.91-6.53,11.76,0,3.48,1.29,6.63,3.87,9.47,2.58,2.84,9.06,4.93,19.44,6.26,3.75,.47,6.13,.92,7.13,1.37,1,.45,1.51,1.08,1.51,1.89,0,1.86-2.6,2.79-7.79,2.79-6.26,0-9.84-1.71-10.75-5.12l-15.82,2c3.28,9.59,11.84,14.39,25.67,14.39,8.2,0,14.64-1.52,19.31-4.57,4.67-3.04,7.01-7.16,7.01-12.35,0-3.39-1.05-6.27-3.16-8.67-2.11-2.39-4.65-4.04-7.63-4.94Z"/>
      <path class="cls-1" d="M440.36,308.85c-1.21-1.49-2.92-2.71-5.15-3.65s-4.81-1.42-7.76-1.42c-5.83,0-10.55,2.19-14.16,6.57v-21.79h-20.04v63.55h20.04v-26.77c0-2.58,.08-4.27,.25-5.07,.17-.81,.76-1.59,1.77-2.35,1.02-.76,2.21-1.14,3.57-1.14,1.77,0,2.96,.49,3.57,1.47,.62,.98,.92,2.77,.92,5.38v28.49h20.04v-30.82c0-4-.21-6.71-.63-8.1s-1.23-2.84-2.44-4.33Z"/>
      <path class="cls-1" d="M497.72,306.84c-2.95-2.05-6.53-3.07-10.75-3.07-5.99,0-10.36,2.21-13.11,6.61v-21.84h-19.74v63.55h11.3c.67-2.48,1.54-4.66,2.61-6.52,3.75,5,9.22,7.5,16.42,7.5s12.79-2.33,16.47-7.01c3.68-4.67,5.52-10.83,5.52-18.46,0-4.19-.72-8.19-2.16-11.99-1.44-3.8-3.63-6.73-6.58-8.78Zm-13.18,32.06c-1.12,1.69-2.74,2.54-4.85,2.54-3.88,0-5.83-2.33-5.83-6.98v-12.85c0-2.02,.59-3.55,1.76-4.61,1.17-1.05,2.49-1.58,3.97-1.58,1.87,0,3.45,.74,4.72,2.21,1.27,1.47,1.91,5.08,1.91,10.83,0,5.28-.56,8.76-1.68,10.45Z"/>
      <path class="cls-1" d="M564.37,323.98c0-5.12-.34-8.58-1.03-10.38-.69-1.8-2.03-3.51-4.04-5.12s-4.74-2.8-8.19-3.56c-3.45-.76-7.23-1.14-11.35-1.14-15.17,0-24.06,4.95-26.67,14.85l18.28,1.58c.54-3.45,3.11-5.17,7.74-5.17,1.97,0,3.47,.34,4.5,1.02,1.02,.68,1.53,2.06,1.53,4.14v1.07c-12.49,.62-21.19,2.48-26.09,5.56-4.91,3.09-7.36,7.13-7.36,12.13,0,3.69,1.5,6.97,4.5,9.82,3,2.86,7.51,4.28,13.54,4.28,7.33,0,12.81-2.53,16.42-7.59,0,2.39,.23,4.59,.7,6.61h19.09c-1.04-2.54-1.56-5.62-1.56-9.22v-18.9Zm-19.24,8.24c0,4.04-.75,6.64-2.26,7.82s-3.33,1.77-5.47,1.77c-3.38,0-5.07-1.43-5.07-4.28,0-4.22,4.27-6.75,12.81-7.59v2.28Z"/>
      <path class="cls-1" d="M599.18,340.04c-2.45,0-4.16-.93-5.15-2.79-.99-1.86-1.48-4.73-1.48-8.61,0-4.5,.49-7.66,1.48-9.47,.99-1.82,2.55-2.72,4.7-2.72,3.35,0,5.39,2.5,6.13,7.5l17.53-1.35c-.64-5.43-3.11-9.92-7.43-13.48-4.32-3.55-9.91-5.33-16.78-5.33-7.73,0-14.02,2.35-18.86,7.05-4.84,4.7-7.26,10.69-7.26,17.95s2.44,12.94,7.31,17.48,11.21,6.82,19.01,6.82c6.96,0,12.55-1.74,16.75-5.21s6.71-7.98,7.51-13.5l-17.08-1.35c-.67,4.69-2.8,7.03-6.38,7.03Z"/>
      <path class="cls-1" d="M667.44,318.9l28.55-30.21-24.15-.04c-7.74,8.23-15.47,16.46-23.21,24.69v-24.83l-20.65,.14v63.54h20.47v-25.95l24.43,25.81h25.74l-31.17-33.15Z"/>
    </g>
  </g>
</svg>